<svg width="18" height="17" viewBox="0 0 18 17" fill="none" xmlns="http://www.w3.org/2000/svg">
<g clip-path="url(#clip0_111_299)">
<path d="M3.98894 1.85056C4.00715 2.34666 3.80849 2.82731 3.44428 3.16504C3.0475 3.52649 2.52381 3.71688 1.98742 3.69315H1.96259C1.43668 3.71688 0.923474 3.52594 0.540497 3.16504C0.184561 2.82179 -0.011342 2.34445 0.000798444 1.85056C-0.0141012 1.35004 0.188424 0.866626 0.555397 0.526141C0.951066 0.167998 1.47255 -0.0201786 2.00563 0.00299862C2.53429 -0.022386 3.05137 0.166342 3.43931 0.526141C3.79801 0.872145 3.99722 1.35225 3.98894 1.85056ZM3.76214 5.14835V15.8298H0.206083V5.14835H3.76214ZM16.556 9.70765V15.8331H13.0099V10.1166C13.0099 9.36164 12.8642 8.77062 12.5728 8.3435C12.2814 7.91638 11.8273 7.70282 11.2103 7.70282C10.7992 7.68902 10.3964 7.82091 10.073 8.07531C9.77057 8.31977 9.53493 8.63708 9.38924 8.99743C9.30095 9.27887 9.26122 9.57355 9.2717 9.86823V15.8281H5.72393C5.73827 12.9585 5.74545 10.6342 5.74545 8.85506C5.74545 7.07593 5.74214 6.01253 5.73551 5.66487L5.72558 5.14669H9.2717V6.69957H9.24852C9.37931 6.48711 9.5272 6.28569 9.69055 6.09696C9.87652 5.89168 10.0801 5.70405 10.2998 5.53574C10.5801 5.32218 10.898 5.16325 11.2368 5.06723C11.6374 4.95245 12.053 4.89616 12.4702 4.90168C13.6986 4.90168 14.6864 5.30949 15.4335 6.12511C16.1807 6.94072 16.5549 8.1349 16.556 9.70765Z" fill="white"/>
</g>
<defs>
<clipPath id="clip0_111_299">
<rect width="17.3438" height="16.5554" fill="white"/>
</clipPath>
</defs>
</svg>
