<svg width="724" height="394" viewBox="0 0 724 394" fill="none" xmlns="http://www.w3.org/2000/svg">
<path d="M594.37 368.517L612.017 337.522C618.827 343.115 626.724 347.702 635.703 351.271C644.682 354.69 653.434 356.4 661.947 356.4C667.058 356.4 671.314 355.78 674.716 354.535C678.279 353.296 680.987 351.664 682.846 349.644C684.705 347.619 685.632 345.367 685.632 342.883C685.632 340.709 684.783 338.457 683.079 336.127C681.531 333.793 678.59 331.386 674.256 328.901C670.077 326.412 663.883 323.85 655.676 321.211C642.978 317.011 632.684 312.275 624.787 306.991C617.051 301.552 611.396 295.649 607.838 289.28C604.276 282.906 602.494 276.228 602.494 269.235C602.494 260.692 604.742 252.846 609.231 245.698C613.876 238.549 620.686 232.878 629.665 228.684C638.644 224.335 649.715 222.161 662.873 222.161C673.401 222.161 683.851 223.865 694.228 227.284C704.756 230.549 713.58 234.665 720.7 239.639L704.212 269.235C697.863 264.731 690.899 261.079 683.312 258.28C675.726 255.331 667.907 253.853 659.854 253.853C653.356 253.853 648.4 255.098 644.993 257.582C641.585 260.067 639.882 262.944 639.882 266.208C639.882 268.538 640.736 270.789 642.44 272.964C644.299 275.138 647.318 277.318 651.497 279.493C655.831 281.667 661.636 283.996 668.911 286.481C682.075 290.835 692.68 295.726 700.727 301.165C708.779 306.449 714.662 312.353 718.38 318.876C722.093 325.25 723.952 332.398 723.952 340.321C723.952 348.864 721.555 356.787 716.754 364.091C711.954 371.394 704.678 377.298 694.922 381.801C685.172 386.311 672.863 388.563 657.995 388.563C650.72 388.563 643.444 387.711 636.169 386.001C628.893 384.446 621.768 382.194 614.803 379.24C607.838 376.291 601.023 372.716 594.37 368.517Z" fill="black"/>
<path d="M458.566 385.769V224.955H571.2V257.582H495.721V289.28H560.284V320.043H495.721V353.136H572.36V385.769H458.566Z" fill="black"/>
<path d="M308.562 257.582V224.955H433.038V257.582H389.374V385.769H352.22V257.582H308.562Z" fill="black"/>
<path d="M142.663 305.359C142.663 292.307 144.594 280.655 148.467 270.402C152.491 260.15 157.985 251.446 164.955 244.298C171.92 237.149 179.972 231.716 189.107 227.987C198.397 224.103 208.225 222.161 218.597 222.161C229.13 222.161 238.959 224.103 248.093 227.987C257.228 231.716 265.28 237.149 272.245 244.298C279.21 251.446 284.632 260.15 288.5 270.402C292.529 280.655 294.538 292.307 294.538 305.359C294.538 318.411 292.529 330.063 288.5 340.321C284.632 350.574 279.21 359.277 272.245 366.42C265.28 373.569 257.228 379.085 248.093 382.969C238.959 386.698 229.203 388.563 218.83 388.563C208.303 388.563 198.397 386.698 189.107 382.969C179.972 379.085 171.92 373.569 164.955 366.42C157.985 359.277 152.491 350.574 148.467 340.321C144.594 330.063 142.663 318.411 142.663 305.359ZM180.516 305.359C180.516 313.752 181.443 321.05 183.302 327.269C185.311 333.483 188.025 338.689 191.427 342.883C194.834 347.077 198.863 350.187 203.503 352.206C208.148 354.226 213.181 355.238 218.597 355.238C224.019 355.238 229.053 354.226 233.692 352.206C238.337 350.187 242.366 347.077 245.768 342.883C249.175 338.689 251.806 333.483 253.665 327.269C255.68 321.05 256.684 313.752 256.684 305.359C256.684 296.971 255.68 289.668 253.665 283.454C251.806 277.241 249.175 272.034 245.768 267.84C242.366 263.641 238.337 260.537 233.692 258.517C229.053 256.498 224.019 255.485 218.597 255.485C213.181 255.485 208.148 256.498 203.503 258.517C198.863 260.537 194.834 263.641 191.427 267.84C188.025 272.034 185.311 277.241 183.302 283.454C181.443 289.668 180.516 296.971 180.516 305.359Z" fill="black"/>
<path d="M0 385.769V224.955H58.5257C70.6016 224.955 81.512 227.284 91.2682 231.949C101.024 236.607 108.688 243.291 114.26 251.989C119.987 260.537 122.851 270.944 122.851 283.222C122.851 295.339 119.987 305.746 114.26 314.45C108.688 323.153 101.024 329.831 91.2682 334.495C81.512 339.154 70.6016 341.483 58.5257 341.483H37.1599V385.769H0ZM37.1599 308.856H55.0406C64.0198 308.856 71.2176 306.759 76.6395 302.565C82.2113 298.21 84.9972 291.765 84.9972 283.222C84.9972 274.519 82.2113 268.073 76.6395 263.879C71.2176 259.679 64.0198 257.582 55.0406 257.582H37.1599V308.856Z" fill="black"/>
<path d="M646.918 87.982C646.918 76.6442 648.64 67.4072 652.079 60.26C655.512 53.1128 660.056 47.8745 665.706 44.545C671.478 41.0949 677.738 39.3725 684.495 39.3725C690.26 39.3725 695.481 40.7273 700.147 43.437C704.933 46.1467 708.68 50.1508 711.381 55.4495L713.593 40.848H723.722L722.616 48.0555C722.247 50.7707 722.005 53.2335 721.878 55.4495C721.757 57.671 721.697 60.3203 721.697 63.3975V131.419C721.697 140.047 720.041 147.255 716.723 153.047C713.406 158.96 708.927 163.397 703.277 166.354C697.633 169.31 691.245 170.791 684.126 170.791C678.476 170.791 672.886 169.991 667.362 168.389C661.839 166.908 656.865 164.878 652.442 162.289L656.678 153.047C660.612 155.51 664.661 157.358 668.837 158.592C673.012 159.947 677.43 160.627 682.096 160.627C690.447 160.627 697.264 158.285 702.54 153.601C707.943 149.043 710.644 141.342 710.644 130.497V119.406C706.963 123.597 702.48 127.047 697.198 129.757C692.043 132.467 686.827 133.821 681.546 133.821C675.285 133.821 669.513 132.159 664.232 128.835C658.95 125.506 654.714 120.454 651.523 113.674C648.453 106.9 646.918 98.3325 646.918 87.982ZM658.152 87.0605C658.152 95.8093 659.319 102.896 661.652 108.315C663.984 113.614 667.054 117.498 670.861 119.96C674.668 122.423 678.723 123.657 683.02 123.657C688.054 123.657 692.962 122.549 697.754 120.328C702.54 117.991 706.837 114.722 710.644 110.531V77.818C710.644 71.4113 709.538 66.1127 707.332 61.922C705.12 57.6107 702.05 54.4018 698.122 52.312C694.315 50.0905 690.018 48.9825 685.226 48.9825C677.37 48.9825 670.861 51.939 665.706 57.852C660.672 63.6443 658.152 73.3805 658.152 87.0605Z" fill="black"/>
<path d="M546.32 40.848H556.449L558.661 55.2685C562.468 50.5842 567.133 46.7665 572.657 43.8045C578.186 40.848 583.77 39.3725 589.42 39.3725C595.065 39.3725 600.165 40.7273 604.704 43.437C609.37 46.026 613.116 49.9698 615.939 55.2685C618.766 60.5672 620.175 67.1603 620.175 75.0425V135.116H609.127V75.9695C609.127 69.5628 608.143 64.4452 606.179 60.6275C604.336 56.8098 601.821 54.0343 598.63 52.312C595.434 50.4635 591.874 49.5365 587.946 49.5365C582.785 49.5365 577.691 50.831 572.657 53.42C567.749 55.8828 563.326 59.3933 559.398 63.9515V135.116H548.345V63.3975C548.345 60.3203 548.284 57.671 548.163 55.4495C548.037 53.2335 547.795 50.7707 547.426 48.0555L546.32 40.848Z" fill="black"/>
<path d="M502.301 135.116V40.848H513.354V135.116H502.301ZM499.908 8.87503C499.908 6.53287 500.645 4.55821 502.12 2.95655C503.715 1.35488 505.619 0.554047 507.825 0.554047C510.158 0.554047 512.061 1.35488 513.536 2.95655C515.01 4.55821 515.747 6.53287 515.747 8.87503C515.747 11.091 515.01 12.9999 513.536 14.6015C512.061 16.2032 510.158 17.004 507.825 17.004C505.619 17.004 503.715 16.2032 502.12 14.6015C500.645 12.9999 499.908 11.091 499.908 8.87503Z" fill="black"/>
<path d="M420.904 50.0905V40.848H438.031V16.823L449.083 14.234V40.848H476.526V50.0905H449.083V109.61C449.083 115.649 450.371 119.96 452.951 122.549C455.652 125.138 459.085 126.427 463.261 126.427C465.104 126.427 467.068 126.186 469.159 125.692C471.365 125.199 473.637 124.398 475.97 123.29L478.363 132.713C476.031 133.948 473.395 134.869 470.446 135.489C467.624 136.224 464.857 136.597 462.155 136.597C457.369 136.597 453.133 135.549 449.447 133.454C445.887 131.359 443.065 128.342 440.979 124.398C439.01 120.454 438.031 115.709 438.031 110.164V50.0905H420.904Z" fill="black"/>
<path d="M326.935 135.116V2.58902L337.982 3.05176e-05V54.528C341.79 50.0905 346.394 46.4538 351.797 43.6235C357.2 40.7877 362.602 39.3725 368.005 39.3725C373.655 39.3725 378.75 40.7273 383.294 43.437C387.96 46.026 391.701 49.9698 394.529 55.2685C397.351 60.5671 398.765 67.1603 398.765 75.0425V135.116H387.712V75.9695C387.712 66.4801 385.627 59.7005 381.451 55.636C377.275 51.5715 372.302 49.5365 366.531 49.5365C361.376 49.5365 356.281 50.831 351.247 53.42C346.334 55.8828 341.911 59.333 337.982 63.7705V135.116H326.935Z" fill="black"/>
<path d="M229.654 87.982C229.654 77.5108 231.437 68.6962 234.996 61.549C238.677 54.2812 243.53 48.796 249.548 45.099C255.683 41.2813 262.499 39.3725 269.993 39.3725C276.127 39.3725 281.777 40.667 286.932 43.2505C292.093 45.8395 296.45 49.6627 300.01 54.7145L291.356 60.814C288.775 56.9908 285.584 54.2208 281.777 52.493C278.097 50.6445 274.042 49.723 269.624 49.723C264.095 49.723 259.121 51.1382 254.703 53.974C250.407 56.6837 247.029 60.8743 244.575 66.5405C242.116 72.2122 240.889 79.3593 240.889 87.982C240.889 96.7308 242.116 103.944 244.575 109.61C247.029 115.276 250.407 119.467 254.703 122.176C259.121 124.892 264.095 126.246 269.624 126.246C274.163 126.246 278.339 125.319 282.146 123.471C285.953 121.502 289.083 118.606 291.537 114.788L300.197 120.882C296.637 125.813 292.214 129.697 286.932 132.532C281.777 135.242 276.127 136.597 269.993 136.597C262.499 136.597 255.683 134.809 249.548 131.238C243.53 127.541 238.677 122.056 234.996 114.788C231.437 107.515 229.654 98.5793 229.654 87.982Z" fill="black"/>
<path d="M190.059 135.116V40.848H201.106V135.116H190.059ZM187.66 8.87503C187.66 6.53287 188.397 4.55821 189.872 2.95655C191.467 1.35488 193.371 0.554047 195.582 0.554047C197.915 0.554047 199.819 1.35488 201.293 2.95655C202.762 4.55821 203.499 6.53287 203.499 8.87503C203.499 11.091 202.762 12.9999 201.293 14.6015C199.819 16.2032 197.915 17.004 195.582 17.004C193.371 17.004 191.467 16.2032 189.872 14.6015C188.397 12.9999 187.66 11.091 187.66 8.87503Z" fill="black"/>
<path d="M108.656 50.0905V40.848H125.783V16.823L136.836 14.234V40.848H164.278V50.0905H136.836V109.61C136.836 115.649 138.123 119.96 140.703 122.549C143.405 125.138 146.843 126.427 151.019 126.427C152.862 126.427 154.826 126.186 156.911 125.692C159.123 125.199 161.395 124.398 163.728 123.29L166.121 132.713C163.788 133.948 161.147 134.869 158.199 135.489C155.376 136.224 152.614 136.597 149.913 136.597C145.127 136.597 140.89 135.549 137.204 133.454C133.645 131.359 130.817 128.342 128.732 124.398C126.767 120.454 125.783 115.709 125.783 110.164V50.0905H108.656Z" fill="black"/>
<path d="M0.866852 118.852L8.23361 110.904C12.899 115.83 18.3017 119.714 24.4416 122.549C30.5814 125.259 37.7666 126.614 45.9917 126.614C53.1108 126.614 59.1297 125.627 64.0427 123.657C68.9502 121.562 72.6363 118.726 75.0901 115.155C77.6704 111.579 78.9577 107.635 78.9577 103.324C78.9577 99.5063 77.9784 95.9299 76.0143 92.6059C74.1713 89.2765 70.7327 86.0731 65.6987 82.9905C60.6646 79.9133 53.4794 76.891 44.1486 73.9345C35.1864 70.978 28.0012 67.835 22.5985 64.511C17.3224 61.0608 13.4547 57.2377 10.9955 53.047C8.66274 48.8618 7.49638 44.2378 7.49638 39.186C7.49638 33.273 9.15239 27.8482 12.4699 22.9225C15.9085 17.8652 20.6949 13.8007 26.8348 10.718C33.1012 7.64086 40.3414 6.09953 48.5719 6.09953C56.5494 6.09953 63.5475 7.33369 69.5664 9.79653C75.7063 12.2594 81.1089 15.7095 85.7743 20.147L78.7762 28.649C75.0901 24.952 70.7932 21.9352 65.8857 19.593C61.0938 17.2509 55.3225 16.0825 48.5719 16.0825C39.2356 16.0825 31.8688 18.2985 26.4662 22.736C21.0635 27.1735 18.3622 32.4722 18.3622 38.632C18.3622 42.0822 19.226 45.2252 20.9425 48.0555C22.7856 50.8913 25.8555 53.5407 30.1523 56.0035C34.5702 58.4718 40.71 60.995 48.5719 63.584C58.5135 66.6666 66.4964 70.1771 72.5153 74.121C78.6552 78.0648 83.1335 82.3761 85.9559 87.0605C88.7837 91.7448 90.1922 96.8569 90.1922 102.402C90.1922 109.177 88.3546 115.155 84.6685 120.328C81.1089 125.38 76.0143 129.389 69.3848 132.346C62.8763 135.182 55.0749 136.597 45.9917 136.597C39.7307 136.597 33.8329 135.917 28.3092 134.562C22.9066 133.207 17.9331 131.238 13.3887 128.649C8.84979 125.939 4.67402 122.67 0.866852 118.852Z" fill="black"/>
</svg>
